<?xml version="1.0" encoding="utf-8"?>
<!-- Generator: Adobe Illustrator 18.1.1, SVG Export Plug-In . SVG Version: 6.00 Build 0)  -->
<svg version="1.1" id="Layer_1" xmlns="http://www.w3.org/2000/svg" xmlns:xlink="http://www.w3.org/1999/xlink" x="0px" y="0px"
	 viewBox="-293 385 24 24" enable-background="new -293 385 24 24" xml:space="preserve">
<path d="M-281,398c-2,0-12-8.1-12-8.1V389c0-1.1,0.9-2,2-2h20c1.1,0,2,0.9,2,2l0,1C-269,390-279,398-281,398z M-281,400.8
	c2.1,0,12-7.8,12-7.8l0,12c0,1.1-0.9,2-2,2h-20c-1.1,0-2-0.9-2-2l0-12C-293,393-283,400.8-281,400.8z"/>
</svg>
