<?xml version="1.0" encoding="utf-8"?>
<!-- Generator: Adobe Illustrator 18.1.1, SVG Export Plug-In . SVG Version: 6.00 Build 0)  -->
<svg version="1.1" id="Layer_1" xmlns="http://www.w3.org/2000/svg" xmlns:xlink="http://www.w3.org/1999/xlink" x="0px" y="0px"
	 viewBox="-277 368.3 56.7 56.7" enable-background="new -277 368.3 56.7 56.7" xml:space="preserve">
<g>
	<path d="M-246.9,395.4L-246.9,395.4C-246.9,395.4-247,395.4-246.9,395.4L-246.9,395.4z"/>
	<path d="M-227.7,373h-42.1c-2,0-3.7,1.6-3.7,3.6v42.6c0,2,1.6,3.6,3.7,3.6h42.1c2,0,3.7-1.6,3.7-3.6v-42.6
		C-224.1,374.6-225.7,373-227.7,373z M-258.5,414.6h-7.5v-22.5h7.5V414.6z M-262.3,389.1L-262.3,389.1c-2.6,0-4.2-1.7-4.2-3.9
		c0-2.2,1.7-3.9,4.2-3.9c2.6,0,4.1,1.7,4.2,3.9C-258,387.4-259.7,389.1-262.3,389.1z M-231.6,414.6h-7.5v-12c0-3-1.1-5.1-3.8-5.1
		c-2.1,0-3.3,1.4-3.8,2.7c-0.2,0.5-0.2,1.1-0.2,1.8v12.5h-7.5c0,0,0.1-20.4,0-22.5h7.5v3.2c1-1.5,2.8-3.7,6.7-3.7
		c4.9,0,8.6,3.2,8.6,10.1L-231.6,414.6L-231.6,414.6z"/>
</g>
</svg>
