<?xml version="1.0" encoding="utf-8"?>
<!-- Generator: Adobe Illustrator 18.1.1, SVG Export Plug-In . SVG Version: 6.00 Build 0)  -->
<svg version="1.1" id="Layer_1" xmlns="http://www.w3.org/2000/svg" xmlns:xlink="http://www.w3.org/1999/xlink" x="0px" y="0px"
	 viewBox="-281 373 48 48" enable-background="new -281 373 48 48" xml:space="preserve">
<g>
	<g>
		<circle fill="#231F20" cx="-257" cy="391.8" r="5.1"/>
		<path fill="#231F20" d="M-250.1,398.7h-13.9c-0.9,0-1.6,0.7-1.6,1.6v10.3c2.5,1.6,5.4,2.5,8.6,2.5c3.1,0,6.1-0.9,8.6-2.4v-10.4
			C-248.4,399.4-249.2,398.7-250.1,398.7z"/>
	</g>
	<path fill="#231F20" d="M-257,373c-13.3,0-24,10.7-24,24s10.7,24,24,24s24-10.7,24-24S-243.7,373-257,373z M-257,416.8
		c-11,0-20-8.9-20-20c0-11,8.9-20,20-20c11,0,20,8.9,20,20C-237,407.9-245.9,416.8-257,416.8z"/>
</g>
</svg>
